<?xml version="1.0" encoding="UTF-8"?>
<svg width="128px" height="128px" viewBox="0 0 128 128" version="1.1" xmlns="http://www.w3.org/2000/svg" xmlns:xlink="http://www.w3.org/1999/xlink">
    <!-- Generator: Sketch 50 (54983) - http://www.bohemiancoding.com/sketch -->
    <title>component-logo-login</title>
    <desc>Created with Sketch.</desc>
    <defs>
        <polygon id="path-1" points="0.615547754 0.293467961 26.2898951 0.293467961 26.2898951 59.0291262 0.615547754 59.0291262"></polygon>
    </defs>
    <g id="Assets" stroke="none" stroke-width="1" fill="none" fill-rule="evenodd">
        <g id="component-logo-login">
            <circle id="Oval" fill="#FFFFFF" cx="64" cy="64" r="64"></circle>
            <g id="Group" transform="translate(28.000000, 32.000000)">
                <g id="Group-3" transform="translate(28.582524, 4.713010)">
                    <mask id="mask-2" fill="white">
                        <use xlink:href="#path-1"></use>
                    </mask>
                    <g id="Clip-2"></g>
                    <path d="M25.6039146,21.6421282 L19.8538563,21.6421282 L19.438167,21.6421282 L19.4512155,21.6098175 C20.2515262,19.4940893 24.2257398,9.54923495 24.7700505,8.14620583 C25.3131184,6.74504078 25.5858951,5.84344854 25.5858951,5.4432932 C25.5858951,5.04375922 25.3559922,4.55661359 24.8986718,3.98372039 C24.4394874,3.41269126 23.8690796,2.85471068 23.1824777,2.3104 C22.4964971,1.76733204 21.7657786,1.29572039 20.9940505,0.893700971 C20.2210796,0.49478835 19.519565,0.293467961 18.8907495,0.293467961 C18.3762641,0.293467961 17.9170796,0.451293204 17.518167,0.765079612 C17.518167,0.765079612 16.4798757,1.46038058 16.3058951,1.8456233 C16.205235,2.06744854 11.3312932,10.9883029 7.03770097,21.6421282 L6.97991456,21.6421282 C6.35047767,21.6421282 5.76391456,22.0279922 5.2208466,22.8009631 C4.67653592,23.5726913 4.4056233,24.1890796 4.4056233,24.6457786 C4.4056233,25.1615068 4.63366214,25.4181282 5.09222524,25.4181282 L5.57253592,25.4181282 C3.03490485,32.2276039 0.961429126,39.3924971 0.635836893,45.245701 C0.635836893,45.245701 0.0188271845,52.0750602 5.58993398,56.1965359 C6.76243883,57.1130408 8.06356505,57.813934 9.4951767,58.2998369 C10.9243029,58.7851184 12.3279534,59.0293126 13.7005359,59.0293126 C14.9575456,59.0293126 16.1747883,58.7291961 17.3479146,58.1283417 C18.5197981,57.5274874 19.5643029,56.8272155 20.4801864,56.0256621 C21.5104,55.167565 22.5107883,54.1671767 23.4844583,53.0220117 C23.598167,52.7933515 23.7423223,52.5646913 23.9131961,52.3347883 C24.2568078,51.877468 24.4283029,51.4773126 24.4283029,51.133701 C24.4283029,50.6763806 24.2269825,50.2470214 23.8280699,49.8462447 C23.4266718,49.4460893 22.997934,49.2453903 22.5399922,49.2453903 C22.1392155,49.2453903 21.7956039,49.374633 21.5104,49.6318757 C21.223332,49.8891184 20.9660893,50.1612738 20.7380505,50.4464777 C20.2794874,51.0193709 19.7942058,51.5065165 19.279099,51.9060505 C18.8205359,52.2490408 18.3203417,52.5646913 17.7772738,52.8505165 C17.2329631,53.1369631 16.7333903,53.2792544 16.2748272,53.2792544 C15.1302835,53.2792544 14.1298951,52.8648078 13.2717981,52.0346718 C12.4130796,51.2057786 11.9843417,50.1333126 11.9843417,48.8160311 C11.9843417,47.271332 12.1688854,45.541468 12.541701,43.623332 C12.9126524,41.7070602 13.3848854,39.7187107 13.9577786,37.6589049 C14.5294291,35.5997204 15.1725359,33.511332 15.8889631,31.3937398 C16.5991767,29.2904388 17.2969631,27.2989825 17.9792155,25.4199922 L18.3942835,25.4199922 C18.3942835,25.4193709 18.3949049,25.4193709 18.3949049,25.4181282 L23.7162252,25.4181282 C24.0020505,25.4181282 24.2872544,25.3044194 24.5743223,25.0751379 C24.8601476,24.847099 25.1316816,24.5749437 25.3895456,24.2599146 C25.6467883,23.9461282 25.8617786,23.6161864 26.0326524,23.2731961 C26.2047689,22.9295845 26.2898951,22.6437592 26.2898951,22.4144777 C26.2898951,21.8993709 26.061235,21.6421282 25.6039146,21.6421282" id="Fill-1" fill="#58585B" mask="url(#mask-2)"></path>
                </g>
                <path d="M11.1937243,0.000186407767 C11.1937243,0.000186407767 8.10494757,10.4464777 19.8877825,15.0905165 C31.6699961,19.7357981 38.5565204,27.4878757 38.538501,39.2023612 C38.538501,39.2023612 46.0059961,17.2441476 28.0903456,9.65735146 C28.0903456,9.65735146 23.7122485,8.15055534 20.4389282,7.42356505 C17.164365,6.69719612 12.3612583,4.81447767 11.1937243,0.000186407767" id="Fill-4" fill="#008E89"></path>
                <path d="M0.000186407767,4.51715728 C0.000186407767,4.51715728 5.08539029,12.0182058 22.1131184,14.6248078 C39.1408466,17.2307883 38.8171184,36.2574291 38.5288078,39.2051573 C38.5288078,39.2051573 37.5116427,29.2099728 21.0754485,29.0714097 C4.63987573,28.9322252 0.000186407767,4.51715728 0.000186407767,4.51715728" id="Fill-6" fill="#00A9A0"></path>
                <path d="M24.9473864,23.7131806 C24.9473864,23.7131806 37.3925903,27.0635495 38.4638136,38.2163262 C38.4836971,38.6388505 38.5017165,38.9737631 38.528435,39.2018019 C38.506066,38.9992388 37.3416388,29.2091029 21.0756971,29.0711612 C4.63950291,28.9319767 0.000434951456,4.51690874 0.000434951456,4.51690874 C0.000434951456,4.51690874 5.9456,19.4506563 24.9473864,23.7131806" id="Fill-8" fill="#5AC3BC"></path>
            </g>
        </g>
    </g>
</svg>