<?xml version="1.0" encoding="UTF-8"?>
<svg width="48px" height="48px" viewBox="0 0 48 48" version="1.1" xmlns="http://www.w3.org/2000/svg" xmlns:xlink="http://www.w3.org/1999/xlink">
    <!-- Generator: Sketch 50.2 (55047) - http://www.bohemiancoding.com/sketch -->
    <title>icon-media-play</title>
    <desc>Created with Sketch.</desc>
    <defs></defs>
    <g id="Assets" stroke="none" stroke-width="1" fill="none" fill-rule="evenodd">
        <path d="M23.8235294,0 C10.6856471,0 0,10.6856471 0,23.8235294 C0,36.9614118 10.6856471,47.6470588 23.8235294,47.6470588 C36.9614118,47.6470588 47.6470588,36.9614118 47.6470588,23.8235294 C47.6470588,10.6856471 36.9614118,0 23.8235294,0 Z M23.8235294,3.17647059 C35.2450588,3.17647059 44.4705882,12.402 44.4705882,23.8235294 C44.4705882,35.2450588 35.2450588,44.4705882 23.8235294,44.4705882 C12.402,44.4705882 3.17647059,35.2450588 3.17647059,23.8235294 C3.17647059,12.402 12.402,3.17647059 23.8235294,3.17647059 Z M16.8823529,13.7647059 L16.8823529,33.8823529 L34.8823529,23.8235294 L16.8823529,13.7647059 Z" id="icon-media-play" fill="#FFFFFF"></path>
    </g>
</svg>