<?xml version="1.0" encoding="UTF-8"?>
<svg width="80px" height="80px" viewBox="0 0 80 80" version="1.1" xmlns="http://www.w3.org/2000/svg" xmlns:xlink="http://www.w3.org/1999/xlink">
    <!-- Generator: Sketch 50.2 (55047) - http://www.bohemiancoding.com/sketch -->
    <title>icon_info_clients</title>
    <desc>Created with Sketch.</desc>
    <defs></defs>
    <g id="icon_info_clients" stroke="none" stroke-width="1" fill="none" fill-rule="evenodd">
        <path d="M72.6531155,75.3961098 C72.348668,75.7493538 71.6061131,75.8023934 71.1892215,75.8023934 L9.40122581,75.8023934 C8.98645584,75.8023934 8.24708329,75.7504146 7.94475735,75.3982314 C7.61697239,75.0174068 7.61379001,74.1889276 7.65728252,73.8993312 C7.66895124,73.8378052 7.67743758,73.7762793 7.68380234,73.7147533 C8.86658626,61.8466039 15.5357903,52.5423906 25.1847612,49.18286 C29.3388257,51.3489988 35.7343452,52.5699713 40.3509153,52.6675642 C44.8688316,52.5699713 51.2558648,51.3500596 55.4152332,49.18286 C65.0684473,52.5445122 71.7387122,61.8487255 72.9172529,73.7136925 C72.9204353,73.7540026 72.932104,73.8271973 72.937408,73.8685682 C72.9851436,74.1857453 72.9819613,75.0142244 72.6531155,75.3961098 M17.9174153,26.1724515 C17.9174153,13.8303864 27.9578925,3.7899092 40.2999576,3.7899092 C52.6420228,3.7899092 62.6825,13.8303864 62.6825,26.1724515 C62.6825,38.5145167 52.6420228,48.5549939 40.2999576,48.5549939 C27.9578925,48.5549939 17.9174153,38.5145167 17.9174153,26.1724515 M76.5304941,72.873205 C75.2363991,60.0589864 68.1065131,49.8762316 57.7001766,45.701333 C63.0774707,40.9041149 66.4724092,33.9287784 66.4724092,26.1724515 C66.4724092,11.7406143 54.7317949,0 40.2999576,0 C25.8681204,0 14.1275061,11.7406143 14.1275061,26.1724515 C14.1275061,33.9287784 17.5224446,40.9051452 22.8997387,45.701333 C12.4985538,49.8741709 5.36969813,60.0558954 4.07045156,72.8721746 C3.97875216,73.4903729 3.72838189,76.0115912 5.35424318,77.9578852 C6.13317292,78.8893039 7.62096995,80 10.2884952,80 L70.3021471,80 C72.971733,80 74.4615907,78.8882736 75.2415508,77.9568549 C76.8694728,76.0105609 76.6211631,73.4903729 76.5304941,72.873205" fill="#58585A"></path>
    </g>
</svg>