<?xml version="1.0" encoding="UTF-8"?>
<svg width="50px" height="50px" viewBox="0 0 50 50" version="1.1" xmlns="http://www.w3.org/2000/svg" xmlns:xlink="http://www.w3.org/1999/xlink">
    <!-- Generator: Sketch 50.2 (55047) - http://www.bohemiancoding.com/sketch -->
    <title>icon_menu_activities</title>
    <desc>Created with Sketch.</desc>
    <defs>
        <polygon id="path-1" points="3.10235744e-05 0.266262626 39.9969068 0.266262626 39.9969068 39.9999596 3.10235744e-05 39.9999596"></polygon>
    </defs>
    <g id="icon_menu_activities" stroke="none" stroke-width="1" fill="none" fill-rule="evenodd">
        <g transform="translate(5.000000, 5.000000)">
            <g id="Group-3">
                <mask id="mask-2" fill="white">
                    <use xlink:href="#path-1"></use>
                </mask>
                <g id="Clip-2"></g>
                <path d="M37.3753939,15.4860202 L32.2032727,14.8153131 L30.8254949,11.4250101 C30.7119596,11.1458182 30.5778182,10.8759192 30.4214545,10.6169293 C32.5806465,10.4953131 34.4368081,9.04521212 35.0772121,6.98056566 C35.7176162,4.91470707 35.0077172,2.66824242 33.2966061,1.34783838 C31.585899,0.025010101 29.2343838,-0.094989899 27.3972121,1.04480808 C25.5600404,2.18581818 24.6254949,4.34824242 25.0517576,6.46783838 C24.9854949,6.47389899 24.9192323,6.45975758 24.8622626,6.42662626 C22.7079192,5.27309091 20.4525657,4.31511111 18.126101,3.56682828 L17.5438788,3.37733333 L17.5454949,3.37733333 C16.5131717,3.04278788 15.3814545,3.31268687 14.6113535,4.07672727 L9.64933333,8.96480808 C8.52852525,10.0476364 8.43721212,11.8120808 9.43923232,13.0052121 C9.96812121,13.6128889 10.7240808,13.9761212 11.5305455,14.0060202 C12.3353939,14.0375354 13.1168081,13.7328889 13.6897374,13.1680404 L17.326101,9.57248485 L19.0840808,10.4945051 L16.2226667,14.8799596 L16.1992323,14.9211717 C15.7572121,15.673899 15.4731717,16.5102626 15.3628687,17.3769293 L9.66993939,22.5930909 L4.55478788,20.7304646 C2.92892929,20.1276364 1.10913131,20.8427879 0.328121212,22.3910707 C-0.0807676768,23.2383434 -0.109050505,24.2201616 0.252161616,25.0900606 C0.608929293,25.9579394 1.31438384,26.6351111 2.19519192,26.9571313 L9.29418182,29.5421818 C9.66185859,29.6779394 10.0501414,29.7458182 10.4416566,29.744202 C11.2400404,29.7474343 12.0121616,29.4601616 12.6149899,28.9361212 L18.5632727,24.5769293 L21.3269091,28.0916768 L18.0695354,35.1829899 C17.4113535,36.5530909 17.7410505,38.194303 18.8776162,39.2027879 C19.2877172,39.5579394 19.7786263,39.8072323 20.3091313,39.9304646 C20.4416566,39.9603636 20.575798,39.9825859 20.7131717,39.9951111 C20.8315556,40.0015758 20.9527677,40.0015758 21.0711515,39.9951111 C22.3733737,39.9951111 23.555596,39.2359192 24.0986263,38.0524848 L28.2242828,29.0213737 C28.7180202,27.9417778 28.5996364,26.6807677 27.9115556,25.7118788 L25.0279192,20.2747071 L26.7499394,17.2646061 L27.3798384,18.554303 L27.3798384,18.5526869 C27.7301414,19.4520808 28.5067071,20.1183434 29.4473131,20.3296566 C29.5402424,20.3502626 29.6335758,20.3660202 29.7188283,20.3785455 L36.6885253,21.2848081 C37.4885253,21.4015758 38.2998384,21.1724848 38.9216566,20.6581414 C39.5467071,20.1547071 39.9349899,19.4145051 39.9931717,18.6124848 C40.0707475,17.0468283 38.9313535,15.6848081 37.3749899,15.4860202 L37.3753939,15.4860202 Z M11.3794343,27.3320808 L11.2990303,27.3967273 C10.9850909,27.6795556 10.5507475,27.7898586 10.1390303,27.6920808 L9.98589899,27.6480404 L2.88690909,25.0577374 C2.53943434,24.9300606 2.26347475,24.6633939 2.12286869,24.3223838 C1.97943434,23.9785455 1.99034343,23.5902626 2.15438384,23.2553131 C2.48731313,22.6464242 3.21983838,22.3765253 3.86832323,22.6258182 L9.55640404,24.6981414 C9.90993939,24.8258182 10.306303,24.7486465 10.5838788,24.4961212 L15.5576162,19.953899 C15.7895354,20.763596 16.175798,21.5195556 16.6966061,22.1805657 L17.3188283,22.9886465 L11.3794343,27.3320808 Z M37.6420606,19.0856162 C37.4525657,19.2452121 37.2032727,19.3159192 36.9588283,19.2799596 L29.9685253,18.3708687 L29.8881212,18.3708687 C29.5927677,18.3046061 29.3515556,18.0928889 29.245697,17.8088485 C29.2347879,17.7773333 29.2202424,17.7458182 29.206101,17.7159192 L27.7196364,14.6730909 C27.5551919,14.3369293 27.2174141,14.1191515 26.8436768,14.1066263 C26.4679192,14.0957172 26.1176162,14.2912727 25.9329697,14.6181414 L23.0004444,19.7522828 C22.8331717,20.0553131 22.8331717,20.4229899 23.0004444,20.7260202 L26.1838788,26.7219798 C26.2105455,26.773697 26.2404444,26.8229899 26.2768081,26.8686465 C26.5547879,27.2456162 26.6036768,27.7478384 26.4016566,28.1720808 L22.2444848,37.2157172 C22.0028687,37.7223838 21.4695354,38.0254141 20.9107475,37.9700606 L20.7608485,37.9466263 C20.5507475,37.8977374 20.3551919,37.7999596 20.1911515,37.6593535 C19.7523636,37.2427879 19.635596,36.5878384 19.9054949,36.0431919 L23.4202424,28.3664242 C23.5782222,28.0221818 23.5289293,27.6181414 23.2937778,27.3199596 L18.2796364,20.9405657 C17.1527677,19.5199596 17.0137778,17.5534949 17.9293333,15.9862222 L21.3919596,10.6815758 C21.5515556,10.443596 21.6020606,10.1466263 21.5293333,9.86905051 C21.4582222,9.58945455 21.2707475,9.35591919 21.0166061,9.22339394 L17.6230707,7.44642424 L17.6214545,7.44642424 C17.2319596,7.24117172 16.7551919,7.31349495 16.4424646,7.6229899 L12.2727677,11.7401616 C12.0517576,11.9567273 11.7378182,12.0464242 11.436404,11.9785455 C11.2501414,11.9361212 11.0828687,11.8367273 10.9596364,11.6912727 C10.6517576,11.3017778 10.7006465,10.7397576 11.0687273,10.4068283 L16.0307475,5.50945455 C16.265899,5.27551515 16.6113535,5.19349495 16.9273131,5.29612121 L17.5095354,5.48561616 L17.5079192,5.48561616 C19.7192323,6.19915152 21.8594343,7.10985859 23.9046869,8.2080404 C24.8436768,8.71955556 26.0085253,8.52521212 26.7329697,7.73935354 C27.1022626,7.34177778 27.236404,6.77975758 27.0881212,6.25733333 C26.9240808,5.65450505 26.9446869,5.01854545 27.1450909,4.42662626 C27.6343838,3.03753535 29.0089293,2.16319192 30.4751919,2.31026263 C31.3669091,2.40965657 32.1749899,2.88480808 32.6941818,3.61692929 C33.2149899,4.34945455 33.3980202,5.26945455 33.1976162,6.14379798 C32.8424646,7.67955556 31.4048889,8.71632323 29.836,8.5680404 L29.4727677,8.49531313 C28.8509495,8.37248485 28.2214545,8.66420202 27.9168081,9.21814141 C27.6121616,9.77369697 27.7022626,10.4617778 28.1394343,10.9195556 C28.4865051,11.2811717 28.7612525,11.7070303 28.9475152,12.1728889 L30.5636768,16.1122828 C30.7006465,16.4500606 31.0085253,16.6884444 31.3717576,16.734101 L37.1293333,17.4819798 C37.6246869,17.5324848 38.0020606,17.9526869 38.0020606,18.4512727 C37.9814545,18.7054141 37.8537778,18.9373333 37.6501414,19.0904646 L37.6420606,19.0856162 Z" id="Fill-1" fill="#58585A" mask="url(#mask-2)"></path>
            </g>
            <path d="M1.01010101,12.1212121 L4.90060606,12.1212121 C5.45939394,12.1212121 5.91070707,11.669899 5.91070707,11.1111111 C5.91070707,10.5539394 5.45939394,10.1010101 4.90060606,10.1010101 L1.01010101,10.1010101 C0.452929293,10.1010101 0,10.5539394 0,11.1111111 C0,11.669899 0.452929293,12.1212121 1.01010101,12.1212121" id="Fill-4" fill="#008E89"></path>
            <path d="M4.64646465,6.06060606 L8.5369697,6.06060606 C9.09414141,6.06060606 9.54707071,5.60929293 9.54707071,5.05050505 C9.54707071,4.49333333 9.09414141,4.04040404 8.5369697,4.04040404 L4.64646465,4.04040404 C4.08767677,4.04040404 3.63636364,4.49333333 3.63636364,5.05050505 C3.63636364,5.60929293 4.08767677,6.06060606 4.64646465,6.06060606" id="Fill-6" fill="#008E89"></path>
            <path d="M3.63636364,16.7676768 C3.63636364,17.0359596 3.74222222,17.2933333 3.93131313,17.4828283 C4.12080808,17.6719192 4.37818182,17.7777778 4.64646465,17.7777778 L8.5369697,17.7777778 C9.09414141,17.7777778 9.54707071,17.3264646 9.54707071,16.7676768 C9.54707071,16.2105051 9.09414141,15.7575758 8.5369697,15.7575758 L4.64646465,15.7575758 C4.08767677,15.7575758 3.63636364,16.2105051 3.63636364,16.7676768" id="Fill-8" fill="#008E89"></path>
        </g>
    </g>
</svg>