<?xml version="1.0" encoding="UTF-8"?>
<svg width="50px" height="50px" viewBox="0 0 50 50" version="1.1" xmlns="http://www.w3.org/2000/svg" xmlns:xlink="http://www.w3.org/1999/xlink">
    <!-- Generator: Sketch 50.2 (55047) - http://www.bohemiancoding.com/sketch -->
    <title>icon_menu_clients</title>
    <desc>Created with Sketch.</desc>
    <defs></defs>
    <g id="icon_menu_clients" stroke="none" stroke-width="1" fill="none" fill-rule="evenodd">
        <path d="M39.4758013,40.7615043 C39.3427342,40.9158993 39.0181801,40.9390817 38.8359662,40.9390817 L11.8298229,40.9390817 C11.6485362,40.9390817 11.3253731,40.9163629 11.1932332,40.7624316 C11.0499658,40.5959817 11.0485749,40.2338721 11.0675845,40.107296 C11.0726846,40.0804044 11.0763938,40.0535128 11.0791757,40.0266212 C11.5961439,34.83932 14.511103,30.7726576 18.7284512,29.3042823 C20.5440994,30.2510529 23.3394371,30.7847125 25.3572361,30.8273681 C27.3319157,30.7847125 30.1235443,30.2515165 31.9415107,29.3042823 C36.1607134,30.7735849 39.0761362,34.8402473 39.5912499,40.0261575 C39.5926408,40.0437762 39.5977409,40.0757679 39.6000592,40.0938502 C39.6209234,40.2324812 39.6195324,40.5945908 39.4758013,40.7615043 M15.618296,18.7776032 C15.618296,13.4196793 19.9770571,9.06091828 25.3349809,9.06091828 C30.6929048,9.06091828 35.0516659,13.4196793 35.0516659,18.7776032 C35.0516659,24.1355271 30.6929048,28.4942881 25.3349809,28.4942881 C19.9770571,28.4942881 15.618296,24.1355271 15.618296,18.7776032 M41.6387223,39.7929422 C41.0563796,34.0265439 37.8479309,29.4443042 33.1650795,27.5655998 C35.5848618,25.4068517 37.1125841,22.2679503 37.1125841,18.7776032 C37.1125841,12.2832765 31.8293077,7 25.3349809,7 C18.8406542,7 13.5573777,12.2832765 13.5573777,18.7776032 C13.5573777,22.2679503 15.0851001,25.4073153 17.5048824,27.5655998 C12.8243492,29.4433769 9.61636416,34.0251529 9.0317032,39.7924786 C8.99043847,40.0706678 8.87777185,41.205216 9.60940943,42.0810484 C9.95992782,42.5001867 10.6294365,43 11.8298229,43 L38.8359662,43 C40.0372799,43 40.7077158,42.4997231 41.0586979,42.0805847 C41.7912627,41.2047524 41.6795234,40.0706678 41.6387223,39.7929422" fill="#58585A"></path>
    </g>
</svg>