<?xml version="1.0" encoding="UTF-8"?>
<svg width="25px" height="25px" viewBox="0 0 25 25" version="1.1" xmlns="http://www.w3.org/2000/svg" xmlns:xlink="http://www.w3.org/1999/xlink">
    <!-- Generator: Sketch 50.2 (55047) - http://www.bohemiancoding.com/sketch -->
    <title>icon_activitycard_img_added</title>
    <desc>Created with Sketch.</desc>
    <defs></defs>
    <g id="icon_activitycard_img_added" stroke="none" stroke-width="1" fill="none" fill-rule="evenodd">
        <g id="Group-6" transform="translate(3.000000, 3.000000)">
            <path d="M13.2475045,1.72727901 L2.07408209,1.72727901 C1.88111393,1.72727901 1.72727901,1.88111393 1.72727901,2.07273481 L1.72727901,12.3082448 C1.72727901,12.4985149 1.81094495,12.5214566 1.91350041,12.3608715 L4.33842741,8.56776679 C4.64879872,8.08198684 5.12109208,8.09950145 5.39773308,8.60150401 L6.12643755,9.93071429 C6.21685024,10.0966954 6.36663642,10.0966954 6.45974713,9.93071429 L8.68092429,5.93102702 C8.9602564,5.42769792 9.40558693,5.43173975 9.67680428,5.93507576 L13.0018164,12.0910981 C13.0922291,12.2597773 13.243366,12.2624753 13.3418762,12.1005429 L13.8992,11.1721304 C14.1960778,10.6795796 14.6832119,10.6755377 14.9922567,11.1586369 L17.0865825,14.4458562 C17.1904887,14.6104866 17.2728039,14.5821488 17.2728039,14.390528 L17.2728039,4.9727119 C16.7897185,5.49224288 16.1082378,5.8012531 15.372797,5.8012531 C13.9424027,5.8012531 12.7818785,4.64072888 12.7818785,3.21033458 C12.7818785,2.67055989 12.9478596,2.15641802 13.2474493,1.72729283 L13.2475045,1.72727901 Z M17.2713737,0 C18.2267663,0 19,0.774580998 19,1.72862629 L19,17.2713737 C19,18.2267663 18.225419,19 17.2713737,19 L1.72862629,19 C0.773233721,19 0,18.225419 0,17.2713737 L0,1.72862629 C0,0.773233721 0.774580998,0 1.72862629,0 L17.2713737,0 Z" id="Fill-1" fill="#58585A"></path>
            <g id="Group-5" transform="translate(8.000000, 8.000000)">
                <rect id="Rectangle-2" stroke="#00A9A0" fill="#00A9A0" x="0.5" y="0.5" width="12.0002894" height="12.0002894" rx="6.00014471"></rect>
                <path d="M5.29803585,8.81274347 C5.42130214,8.94382304 5.57978737,9 5.7382726,9 C5.89675783,9 6.03763359,8.94382304 6.16089988,8.81274347 L9.80606019,5.12378977 C10.0525928,4.88035628 10.0702022,4.46839191 9.82366966,4.20623276 C9.59474655,3.94407362 9.20733821,3.92534796 8.96080562,4.18750711 L5.7382726,7.42704513 L4.06537294,5.64810806 C3.81884036,5.38594892 3.43143202,5.38594892 3.18489944,5.64810806 C2.93836685,5.91026721 2.93836685,6.32223158 3.18489944,6.58439073 L5.29803585,8.81274347 Z" id="Fill-1" fill="#FFFFFF"></path>
            </g>
        </g>
    </g>
</svg>