<?xml version="1.0" encoding="UTF-8"?>
<svg width="25px" height="25px" viewBox="0 0 25 25" version="1.1" xmlns="http://www.w3.org/2000/svg" xmlns:xlink="http://www.w3.org/1999/xlink">
    <!-- Generator: Sketch 50.2 (55047) - http://www.bohemiancoding.com/sketch -->
    <title>icon_activitycard_vid_default</title>
    <desc>Created with Sketch.</desc>
    <defs></defs>
    <g id="icon_activitycard_vid_default" stroke="none" stroke-width="1" fill="none" fill-rule="evenodd">
        <path d="M20.3174551,3 L4.68254492,3 C3.75481297,3 3,3.75481299 3,4.68254497 L3,20.317455 C3,21.245187 3.75481297,22 4.68254492,22 L20.3174551,22 C21.245187,22 22,21.245187 22,20.317455 L22,4.68254497 C22,3.75481299 21.245187,3 20.3174551,3 Z M16.3705853,16.7839297 C16.3705853,17.1668937 16.0588713,17.4778667 15.6759073,17.4778667 C15.5556734,17.4778667 15.4361843,17.4459524 15.3300503,17.3843506 L7.91112071,13.1004207 C7.69366572,12.9749903 7.56378173,12.7508587 7.56378173,12.4999827 C7.56378173,12.2491067 7.69366382,12.0249827 7.91112071,11.8995447 L15.3300503,7.61561291 C15.4361824,7.55401111 15.5556753,7.52209681 15.6759073,7.52209681 C16.0588713,7.52209681 16.3705853,7.83306981 16.3705853,8.2160338 L16.3705853,16.7839297 Z" id="Fill-1" fill="#C9C9C9" transform="translate(12.500000, 12.500000) rotate(-180.000000) translate(-12.500000, -12.500000) "></path>
    </g>
</svg>