<?xml version="1.0" encoding="UTF-8"?>
<svg width="24px" height="24px" viewBox="0 0 24 24" version="1.1" xmlns="http://www.w3.org/2000/svg" xmlns:xlink="http://www.w3.org/1999/xlink">
    <!-- Generator: Sketch 50.2 (55047) - http://www.bohemiancoding.com/sketch -->
    <title>icon_password</title>
    <desc>Created with Sketch.</desc>
    <defs></defs>
    <g id="icon_password" stroke="none" stroke-width="1" fill="none" fill-rule="evenodd">
        <path d="M16.2563238,10.5639872 L16.2563238,8.10249202 C16.2563238,5.84035448 14.4160631,4 12.1538318,4 C9.89160049,4 8.05133978,5.84026071 8.05133978,8.10249202 L8.05133978,10.5639872 C6.92096492,10.5639872 6,11.4848584 6,12.615327 L6,17.9486604 C6,19.0790353 6.92087115,20 8.05133978,20 L16.2563238,20 C17.3866987,20 18.3076636,19.079129 18.3076636,17.9486604 L18.3076636,12.615327 C18.3076636,11.4834706 17.3867925,10.5639872 16.2563238,10.5639872 Z M8.87183818,8.10099168 C8.87183818,6.2915067 10.3443468,4.81899806 12.1538318,4.81899806 C13.9633168,4.81899806 15.4358254,6.2915067 15.4358254,8.10099168 L15.4358254,10.5624869 L8.87183818,10.5624869 L8.87183818,8.10099168 Z M17.4871652,17.9469725 C17.4871652,18.6260826 16.9355277,19.1777201 16.2564176,19.1777201 L8.05143355,19.1777201 C7.37232343,19.1777201 6.82068595,18.6260826 6.82068595,17.9469725 L6.82068595,12.6136391 C6.82068595,11.934529 7.37232343,11.3828915 8.05143355,11.3828915 L16.2564176,11.3828915 C16.9355277,11.3828915 17.4871652,11.934529 17.4871652,12.6136391 L17.4871652,17.9469725 Z" fill="#00A9A0"></path>
    </g>
</svg>