<?xml version="1.0" encoding="UTF-8"?>
<svg width="50px" height="50px" viewBox="0 0 50 50" version="1.1" xmlns="http://www.w3.org/2000/svg" xmlns:xlink="http://www.w3.org/1999/xlink">
    <!-- Generator: Sketch 50.2 (55047) - http://www.bohemiancoding.com/sketch -->
    <title>icon_menu_settings</title>
    <desc>Created with Sketch.</desc>
    <defs></defs>
    <g id="icon_menu_settings" stroke="none" stroke-width="1" fill="none" fill-rule="evenodd">
        <g transform="translate(5.000000, 5.000000)">
            <path d="M21.6657508,40 L18.247588,40 C16.8272603,40 15.7173519,38.843731 15.7173519,37.4670172 L15.7173519,35.822925 C15.7173519,35.4236175 15.4953702,35.1111013 15.1398443,34.97919 C14.340355,34.7118294 13.5408658,34.4010555 12.7864832,34.0017658 C12.4760551,33.824681 12.0754315,33.9132234 11.8101189,34.1788506 L10.6551038,35.3333862 C10.1660338,35.8229872 9.54519537,36.0885877 8.83414362,36.0885877 C8.16819855,36.0885877 7.50225347,35.8212272 7.01318341,35.3333862 L4.6164915,32.9340925 C3.64012724,31.9566684 3.64012724,30.3125762 4.6164915,29.3333742 L5.77150663,28.1771052 C6.03857724,27.9097447 6.08193471,27.5104372 5.9483994,27.1996811 C5.54952494,26.4444796 5.23734765,25.6441224 4.97203514,24.8437652 C4.83849983,24.4878623 4.52807175,24.2656308 4.12921505,24.2656308 L2.48690572,24.2656308 C1.15501513,24.2673685 0,23.1110951 0,21.6892256 L0,18.2673521 C0,16.8454826 1.15501469,15.7343692 2.53023654,15.7343692 L4.17254588,15.7343692 C4.57142034,15.7343692 4.88359763,15.5121466 5.01536596,15.1562348 C5.28243657,14.3558776 5.59287353,13.5555204 5.99173023,12.8003189 C6.168623,12.4895539 6.08017661,12.0884953 5.81483746,11.8228948 L4.66155378,10.6666258 C3.68518952,9.6892016 3.68518952,8.04510942 4.66155378,7.06590747 L7.0582457,4.66661378 C7.54731576,4.1770128 8.16815415,3.91141227 8.8792059,3.91141227 C9.54515097,3.91141227 10.211096,4.1787728 10.7001661,4.66661378 L11.8551812,5.82288276 C12.1222518,6.09024329 12.5211263,6.13364782 12.8315455,5.99996756 C13.5859281,5.60066009 14.3854173,5.28814391 15.1849066,5.02254338 C15.5404236,4.88886311 15.7624142,4.57809805 15.7624142,4.17880836 L15.7624142,2.53471618 C15.7155893,1.15622453 16.8705911,0 18.2909188,0 L21.7090817,0 C23.1294093,0 24.2393177,1.15626898 24.2393177,2.53298284 L24.2393177,4.17707502 C24.2393177,4.57638249 24.4612994,4.88889867 24.8168253,5.02081004 C25.6163146,5.28817058 26.4158038,5.59894453 27.1701864,5.99823422 C27.4806145,6.17531902 27.8812382,6.08677662 28.1465507,5.82114942 L29.3015658,4.66488044 C29.7906359,4.17527946 30.4114743,3.90967893 31.122526,3.90967893 C31.7884711,3.90967893 32.4544161,4.17703947 32.9434862,4.66488044 L35.3401781,7.06417413 C36.3165424,8.04159831 36.3165424,9.68569048 35.3401781,10.6648924 L34.185163,11.8211614 C33.9180924,12.088522 33.8747349,12.4878294 34.0082702,12.7985856 C34.4071447,13.5537871 34.719322,14.3541443 34.9846345,15.1545014 C35.1181698,15.5104044 35.4285979,15.7326359 35.8274546,15.7326359 L37.4697639,15.7326359 C38.8900915,15.7326359 40,16.8889049 40,18.2656188 L40,21.6874923 C40,23.1093618 38.8449849,24.2204751 37.4697639,24.2204751 L35.8274546,24.2204751 C35.4285801,24.2204751 35.1164028,24.4426978 34.9846345,24.7986096 C34.7175639,25.5989668 34.4071269,26.3993239 34.0082702,27.1545254 C33.8313774,27.4652905 33.9198238,27.8663491 34.185163,28.1319496 L35.3401781,29.2882186 C36.3165424,30.2656428 36.3165424,31.9097349 35.3401781,32.8889369 L32.9434862,35.2882306 C32.4544161,35.7778316 31.8335778,36.0434321 31.122526,36.0434321 C30.4565809,36.0434321 29.7906359,35.7760716 29.3015658,35.2882306 L28.1465507,34.1319616 C27.8794801,33.8646011 27.4806056,33.8211965 27.1701864,33.9548768 C26.4158038,34.3541843 25.6163146,34.6667004 24.8168253,34.932301 C24.4613083,35.0659812 24.2393177,35.3767463 24.2393177,35.776036 L24.2393177,37.4201282 C24.2410492,38.843731 23.0860341,40 21.6657064,40 L21.6657508,40 Z M12.4308685,32.2222067 C12.829743,32.2222067 13.2303578,32.3107491 13.540777,32.4895672 C14.2067221,32.8454701 14.9177738,33.1110796 15.6270497,33.3784579 C16.6918515,33.7343608 17.4029032,34.7117939 17.4029032,35.8229072 L17.4029032,37.4669994 C17.4029032,37.9566004 17.8017777,38.3107344 18.2457233,38.3107344 L21.6638862,38.3107344 C22.1529562,38.3107344 22.5067063,37.9114269 22.5067063,37.4669994 L22.5067063,35.8229072 C22.5067063,34.7117939 23.217758,33.689214 24.2825598,33.3784579 C24.9936115,33.1562352 25.7028874,32.845479 26.3688325,32.4895672 C27.3018659,31.9999662 28.5435427,32.2222067 29.2997012,32.9791682 L30.4547163,34.1354372 C30.7651444,34.4462022 31.342643,34.4462022 31.6530622,34.1354372 L34.0497542,31.7361435 C34.3601822,31.4253784 34.3601822,30.8472528 34.0497542,30.5364966 L32.894739,29.3802276 C32.0952498,28.5798705 31.9183748,27.4253793 32.405669,26.4461773 C32.761186,25.7795093 33.0265074,25.0676857 33.2935957,24.3576398 C33.6491127,23.2916821 34.6254859,22.5798585 35.7353943,22.5798585 L37.3777037,22.5798585 C37.8667737,22.5798585 38.2205237,22.180551 38.2205237,21.7361235 L38.2205237,18.31425 C38.2205237,17.824649 37.8216493,17.4705149 37.3777037,17.4705149 L35.7353943,17.4705149 C34.6254859,17.4705149 33.6040149,16.7586913 33.2935957,15.6927336 C33.071614,14.98091 32.7611948,14.2708641 32.405669,13.6041961 C31.9165989,12.6267719 32.0952409,11.4271251 32.894739,10.6701458 L34.0497542,9.51387681 C34.3601822,9.20311174 34.3601822,8.62498614 34.0497542,8.31422996 L31.6530622,5.91493627 C31.3426342,5.60417121 30.7651355,5.60417121 30.4547163,5.91493627 L29.2997012,7.07120525 C28.5453186,7.82640676 27.3018659,8.04862943 26.3688325,7.56080623 C25.7028874,7.2049033 24.9918357,6.93929388 24.2825598,6.67191557 C23.217758,6.31601263 22.5067063,5.33857957 22.5067063,4.22746623 L22.5067063,2.58337406 C22.5067063,2.09377308 22.1078318,1.73963903 21.6638862,1.73963903 L18.2457233,1.73963903 C17.7566533,1.73963903 17.4029032,2.1389465 17.4029032,2.58337406 L17.4029032,4.22746623 C17.4029032,5.33857957 16.6918515,6.36115939 15.6270497,6.67191557 C14.915998,6.89413823 14.2067221,7.20489441 13.540777,7.56080623 C12.6077436,8.05040721 11.3660668,7.82816677 10.6099083,7.07120525 L9.45489322,5.91493627 C9.14446514,5.60417121 8.56696645,5.60417121 8.25654726,5.91493627 L5.85985534,8.31422996 C5.54942727,8.62499503 5.54942727,9.20312063 5.85985534,9.51387681 L7.01487048,10.6701458 C7.81435973,11.4705029 7.99123474,12.6249941 7.50394054,13.6041961 C7.14842354,14.2708641 6.88310214,14.9826877 6.61601377,15.6927336 C6.26049678,16.7586913 5.28412363,17.4705149 4.17421518,17.4705149 L2.53190584,17.4705149 C2.0428349,17.4705149 1.68908488,17.8698224 1.68908488,18.31425 L1.68908488,21.7361235 C1.68908488,22.2257245 2.08795933,22.5798585 2.53190584,22.5798585 L4.17421518,22.5798585 C5.28412363,22.5798585 6.30559458,23.2916821 6.61601377,24.3576398 C6.83799546,25.0694635 7.14841466,25.7795093 7.50394054,26.4461773 C7.9930106,27.4236015 7.81436861,28.6232484 7.01487048,29.3802276 L5.85985534,30.5364966 C5.54942727,30.8472617 5.54942727,31.4253873 5.85985534,31.7361435 L8.25654726,34.1354372 C8.56697533,34.4462022 9.14447402,34.4462022 9.45489322,34.1354372 L10.6099083,32.9791682 C11.0989784,32.4895672 11.7649235,32.2222333 12.4308685,32.2222333 L12.4308685,32.2222067 Z" id="Fill-1" fill="#58585A"></path>
            <path d="M19.978246,29.3784676 C14.8273829,29.3784676 10.6097308,25.2013926 10.6097308,19.9997822 C10.6097308,14.8002163 14.8273829,10.6210968 19.978246,10.6210968 C25.1291092,10.6210968 29.3467613,14.8433275 29.3467613,19.9997822 C29.3467613,25.156237 25.1291092,29.3784676 19.978246,29.3784676 Z M19.978246,12.3557669 C15.7605939,12.3557669 12.3425198,15.7776404 12.3425198,19.9997822 C12.3425198,24.221924 15.7606827,27.6437975 19.978246,27.6437975 C24.1958093,27.6437975 27.6139722,24.221924 27.6139722,19.9997822 C27.6139722,15.7776404 24.1958093,12.3557669 19.978246,12.3557669 Z" id="Combined-Shape" fill="#008E89"></path>
        </g>
    </g>
</svg>