<?xml version="1.0" encoding="UTF-8"?>
<svg width="50px" height="50px" viewBox="0 0 50 50" version="1.1" xmlns="http://www.w3.org/2000/svg" xmlns:xlink="http://www.w3.org/1999/xlink">
    <!-- Generator: Sketch 50.2 (55047) - http://www.bohemiancoding.com/sketch -->
    <title>icon_menu_history</title>
    <desc>Created with Sketch.</desc>
    <defs></defs>
    <g id="icon_menu_history" stroke="none" stroke-width="1" fill="none" fill-rule="evenodd">
        <g transform="translate(6.000000, 6.000000)">
            <path d="M19,0 C8.5215,0 0,8.5215 0,19 C0,29.4785 8.5215,38 19,38 C29.4785,38 38,29.4785 38,19 C38,8.5215 29.4785,0 19,0 Z M19,2.375 C28.196,2.375 35.625,9.804 35.625,19 C35.625,28.196 28.196,35.625 19,35.625 C9.804,35.625 2.375,28.196 2.375,19 C2.375,9.804 9.804,2.375 19,2.375 Z" id="Fill-1" fill="#58585A"></path>
            <path d="M18.8471131,5.93785625 C19.5035037,5.93785625 20.0346131,6.46898344 20.0346131,7.12535625 L20.0346131,19.0003563 C20.0346131,19.3273819 19.8977715,19.6196375 19.682074,19.8352875 L12.1301678,27.4056 C11.6663006,27.8694672 10.9055584,27.8694672 10.4416615,27.4056 C9.97776465,26.9417328 9.97779434,26.1809906 10.4416615,25.7170937 L17.6592865,18.517875 L17.6592865,7.125 C17.6592865,6.46860938 18.1904137,5.9375 18.8467865,5.9375 L18.8471131,5.93785625 Z" id="Path" fill="#008E89"></path>
        </g>
    </g>
</svg>