<?xml version="1.0" encoding="UTF-8"?>
<svg width="24px" height="24px" viewBox="0 0 24 24" version="1.1" xmlns="http://www.w3.org/2000/svg" xmlns:xlink="http://www.w3.org/1999/xlink">
    <!-- Generator: Sketch 50 (54983) - http://www.bohemiancoding.com/sketch -->
    <title>icon-activitycard-img-add</title>
    <desc>Created with Sketch.</desc>
    <defs></defs>
    <g id="Assets" stroke="none" stroke-width="1" fill="none" fill-rule="evenodd">
        <path d="M16.733628,2.18181803 L2.61988346,2.18181803 C2.37613511,2.18181803 2.18181803,2.37613511 2.18181803,2.61818164 L2.18181803,15.547199 C2.18181803,15.7875393 2.28750094,15.8165182 2.4170442,15.6136746 L5.48009854,10.8224022 C5.87214506,10.2087877 6.46872393,10.2309113 6.8181639,10.8650175 L7.7386293,12.5440137 C7.85283438,12.7536733 8.04203728,12.7536733 8.15965036,12.5440137 L10.9653374,7.49179586 C11.3181767,6.85601408 11.8806974,6.86111954 12.2232864,7.49691004 L16.4232862,15.2729095 C16.5374912,15.4859771 16.7284003,15.4893851 16.8528338,15.2848397 L17.5568192,14.1121125 C17.9318213,13.4899453 18.5471464,13.4848398 18.9375173,14.0950681 L21.5829716,18.2473297 C21.7142211,18.4552831 21.8181978,18.4194882 21.8181978,18.1774417 L21.8181978,6.28129703 C21.2079869,6.93754426 20.3471724,7.32787151 19.418198,7.32787151 C17.6113908,7.32787151 16.1454709,5.86195161 16.1454709,4.05514445 C16.1454709,3.37332632 16.3551305,2.72388636 16.7335581,2.18183549 L16.733628,2.18181803 Z M21.8163913,3.97903932e-13 C23.0231984,3.97903932e-13 23.9999111,0.97841448 23.9999111,2.18351985 L23.9999111,21.8163913 C23.9999111,23.0231984 23.0214966,23.9999111 21.8163913,23.9999111 L2.18351985,23.9999111 C0.976712662,23.9999111 0,23.0214966 0,21.8163913 L0,2.18351985 C0,0.976712662 0.97841448,3.97903932e-13 2.18351985,3.97903932e-13 L21.8163913,3.97903932e-13 Z" id="icon-activitycard-img-add" fill="#00A9A0"></path>
    </g>
</svg>