<?xml version="1.0" encoding="UTF-8"?>
<svg width="80px" height="80px" viewBox="0 0 80 80" version="1.1" xmlns="http://www.w3.org/2000/svg" xmlns:xlink="http://www.w3.org/1999/xlink">
    <!-- Generator: Sketch 50.2 (55047) - http://www.bohemiancoding.com/sketch -->
    <title>icon_info_sent</title>
    <desc>Created with Sketch.</desc>
    <defs></defs>
    <g id="icon_info_sent" stroke="none" stroke-width="1" fill="none" fill-rule="evenodd">
        <g transform="translate(0.000000, 3.000000)">
            <path d="M41.6447776,66.7850075 C40.9326377,66.7850075 40.2923338,66.3289875 40.0611694,65.6449375 L33.6612494,46.4449375 L14.4644478,40.0450175 C13.8428866,39.8388726 13.4024988,39.286021 13.3337331,38.6363618 C13.2650155,37.9835602 13.5867346,37.3526037 14.152044,37.0278061 L77.4547926,0.380529735 C78.0232604,0.0588185907 78.7197601,0.0869245377 79.2445377,0.458618691 C79.7786467,0.827186407 80.0441379,1.47371114 79.9316982,2.11403098 L69.9366957,58.7513123 C69.8492354,59.2510625 69.5368956,59.6852454 69.0871204,59.9288836 C68.6435902,60.1725137 68.1094493,60.1943748 67.6378451,59.9944748 L46.2013633,50.8086677 L43.2715482,65.4541449 C43.1247496,66.1943988 42.500062,66.7441399 41.7410335,66.7909965 C41.716046,66.7816252 41.6785687,66.7847516 41.6442099,66.7847516 L41.6447776,66.7850075 Z M19.028086,38.0521739 L35.5102449,43.5463068 C36.0068686,43.7087216 36.4004398,44.1022769 36.5628386,44.5989005 L41.2417791,58.6390805 L43.3438481,48.1315342 C43.4406717,47.6411554 43.7561379,47.2195102 44.2027786,46.9852274 C44.6463088,46.7478421 45.1710145,46.7291074 45.6364618,46.9290075 L67.0257671,56.0932254 L76.034063,5.04994703 L19.028086,38.0521739 Z" id="Fill-1" fill="#58585A"></path>
            <path d="M44.9775112,50.1277361 C44.6401759,50.1277361 44.305975,50.0277861 44.0092754,49.8185147 C43.2596502,49.2844058 43.0910145,48.2411434 43.621973,47.4978351 L65.2423628,17.2313683 L36.1601039,46.3104288 C35.5104288,46.9601039 34.4547166,46.9601039 33.8050415,46.3104288 C33.1553663,45.6607536 33.1553663,44.6050415 33.8050415,43.9553663 L77.1177851,0.642622689 C77.7331014,0.0273063468 78.7107486,-0.0132973513 79.3728976,0.548917541 C80.031984,1.10801399 80.1537631,2.08255072 79.654005,2.78843778 L46.3362639,49.4307166 C46.0114263,49.8836182 45.4929255,50.1272404 44.9775832,50.1272404 L44.9775112,50.1277361 Z" id="Fill-2" fill="#58585A"></path>
            <path d="M41.6447776,66.7850075 C41.298079,66.7850075 40.9451274,66.6756862 40.6452774,66.4507986 C39.9081419,65.897947 39.7582009,64.8547166 40.307942,64.1175652 L50.3029445,50.7898291 C50.8589145,50.0495752 51.9021449,49.9058711 52.6361779,50.4556202 C53.3733133,51.0084718 53.5232544,52.0517021 52.9735132,52.7888536 L42.9785107,66.1165897 C42.6505467,66.5569935 42.1476462,66.7850075 41.6447776,66.7850075 Z" id="Fill-3" fill="#58585A"></path>
            <path d="M4.0698051,62.4311844 C3.66687856,62.4311844 3.26396802,62.2875042 2.93909045,61.9907806 C2.10822589,61.2286657 1.29303348,60.4415552 0.487196242,59.6357181 C-0.162478921,58.986043 -0.162478921,57.9303308 0.487196242,57.2806557 C1.13687156,56.6278541 2.19258371,56.6309805 2.84225887,57.2775372 C3.61374513,58.0490235 4.40083958,58.808052 5.19732134,59.5388866 C5.87511044,60.1604478 5.91571414,61.2162079 5.29414493,61.893949 C4.96618091,62.250019 4.5164058,62.4311844 4.0697971,62.4311844 L4.0698051,62.4311844 Z" id="Fill-4" fill="#520099"></path>
            <path d="M26.7682159,73.4128904 C25.1971614,73.4128904 23.5822889,73.2473491 21.9768516,72.9162667 C21.0741829,72.7319828 20.4963118,71.8543176 20.6775012,70.951649 C20.8649115,70.0489803 21.7551224,69.4805445 22.6452374,69.6522987 C24.032064,69.9365325 25.4156922,70.0802127 26.7650175,70.0802127 L26.7837601,70.0802127 L27.5333853,70.0677189 C28.6172434,70.0083742 29.2294173,70.7548794 29.2638001,71.6700386 C29.2981589,72.5820618 28.5766397,73.3629513 27.6583628,73.3973349 L26.790077,73.4129519 L26.7682159,73.4129519 L26.7682159,73.4128904 Z M14.8301849,70.2238449 C14.5709385,70.2238449 14.3116922,70.1644994 14.0649435,70.0364346 C12.5125997,69.2305975 10.9227546,68.2591664 9.33602799,67.1597161 C8.57703148,66.6318521 8.39273963,65.5948986 8.92061169,64.8421549 C9.44847576,64.0831584 10.4885477,63.901985 11.2350545,64.4267386 C12.699922,65.448068 14.1711064,66.3413813 15.5984728,67.0816512 C16.4136652,67.5033123 16.7354243,68.5122159 16.3074943,69.3274051 C16.0107706,69.8989913 15.4328916,70.2238369 14.830073,70.2238369 L14.8301849,70.2238449 Z" id="Fill-5" fill="#520099"></path>
            <path d="M35.3327336,71.6265891 C34.6861849,71.6265891 34.0708846,71.2455316 33.7991004,70.6177335 C33.439904,69.7712768 33.8334593,68.7904872 34.67994,68.4281859 C35.6013193,68.0315122 36.5383708,67.5661369 37.4691854,67.0164118 C38.2594143,66.5510205 39.2776412,66.8102669 39.7524438,67.6067406 C40.2209615,68.400096 39.9585887,69.4183172 39.1621149,69.8900014 C38.1313503,70.4959464 37.0662829,71.0394267 35.9918601,71.4985571 C35.7763438,71.5860174 35.5514563,71.6266211 35.3328136,71.6266211 L35.3327336,71.6265891 Z" id="Fill-6" fill="#520099"></path>
        </g>
    </g>
</svg>