<?xml version="1.0" encoding="UTF-8"?>
<svg width="80px" height="80px" viewBox="0 0 80 80" version="1.1" xmlns="http://www.w3.org/2000/svg" xmlns:xlink="http://www.w3.org/1999/xlink">
    <!-- Generator: Sketch 50.2 (55047) - http://www.bohemiancoding.com/sketch -->
    <title>icon_info_noConnection</title>
    <desc>Created with Sketch.</desc>
    <defs></defs>
    <g id="icon_info_noConnection" stroke="none" stroke-width="1" fill="none" fill-rule="evenodd">
        <g transform="translate(2.000000, 0.000000)">
            <path d="M16.199,41 C14.4998,42.1992 12.8006,43.6016 11.3006,45.1016 C10.40216,46.00004 10.40216,47.6016 11.3006,48.5 C11.8006,49 12.4022,49.19922 12.9998,49.19922 C13.60136,49.19922 14.199,49 14.699,48.5 C15.9998,47.1992 17.3982,46 18.9998,44.8984 C20.1014,44.09762 20.3006,42.5976 19.60136,41.5976 C18.80058,40.4999 17.30056,40.1992 16.19906,40.99994 L16.199,41 Z" id="Fill-1" fill="#520099"></path>
            <path d="M74.602,35.5 C63.102,24 47.301,18.398 31.399,20.102 C30.899,20.20356 30.399,20.20356 30.0006,20.30122 L20.0006,1.30122 C19.39904,0.10202 17.899,-0.30038 16.8014,0.30122 C15.6022,0.90278 15.1998,2.40282 15.8014,3.50042 L25.1022,21.19942 C16.1022,23.30102 8.0002,27.89862 1.3012,34.50042 C0.40276,35.39886 0.40276,37.00042 1.3012,37.89882 C2.19964,38.79726 3.8012,38.79726 4.6996,37.89882 C11.0004,31.59802 18.8016,27.39882 27.3986,25.59782 L32.1994,34.69942 C29.301,35.09786 26.3986,35.89862 23.6994,37.00022 C22.5002,37.50022 21.8986,38.89862 22.3986,40.10182 C22.8986,41.30102 24.297,41.90262 25.5002,41.40262 C28.1994,40.30102 31.0002,39.60182 34.0002,39.30102 C34.19942,39.30102 34.5002,39.30102 34.69942,39.19946 L39.59782,48.59786 C38.19942,48.4963 36.69942,48.4963 35.29702,48.69942 C29.79702,49.30098 24.89902,51.59782 21.09802,55.50022 C20.19958,56.39866 20.19958,58.00022 21.09802,58.89862 C21.99646,59.79706 23.59802,59.79706 24.49642,58.89862 C27.59802,55.79702 31.49642,54.00022 35.89442,53.50022 C38.09362,53.301 40.29282,53.39866 42.49602,53.89866 L55.49602,78.59766 C55.89446,79.39844 56.79682,79.89846 57.59762,79.89846 C57.99606,79.89846 58.3984,79.7969 58.69922,79.59768 C59.89842,78.99612 60.30082,77.49608 59.69922,76.39848 L49.30122,57.00048 C50.30122,57.6997 51.19962,58.50048 52.10202,59.39888 C52.60202,59.89888 53.20362,60.0981 53.80122,60.0981 C54.40278,60.0981 55.00042,59.89888 55.50042,59.39888 C56.39886,58.50044 56.39886,56.89888 55.50042,56.00048 C52.60202,53.10208 49.19962,51.00048 45.50042,49.80128 L39.89882,39.19928 C47.89882,39.80084 55.50082,43.19928 61.39882,49.09768 C61.89882,49.59768 62.50042,49.7969 63.09802,49.7969 C63.69958,49.7969 64.29722,49.59768 64.79722,49.09768 C65.69566,48.19924 65.69566,46.59768 64.79722,45.69928 C57.39882,38.30088 47.59822,34.19928 37.39922,34.30128 L32.39922,24.80128 C46.70022,23.40288 60.89922,28.50048 71.29722,38.90328 C71.79722,39.40328 72.39882,39.6025 72.99642,39.6025 C73.59798,39.6025 74.19562,39.40328 74.69562,38.90328 C75.50031,38.00094 75.50031,36.50098 74.60187,35.50098 L74.602,35.5 Z" id="Fill-2" fill="#58585A"></path>
            <circle id="Oval-4" stroke="#520099" stroke-width="3" cx="38" cy="70" r="6"></circle>
        </g>
    </g>
</svg>