<?xml version="1.0" encoding="UTF-8"?>
<svg width="10px" height="10px" viewBox="0 0 10 10" version="1.1" xmlns="http://www.w3.org/2000/svg" xmlns:xlink="http://www.w3.org/1999/xlink">
    <!-- Generator: Sketch 50 (54983) - http://www.bohemiancoding.com/sketch -->
    <title>icon-history-progress</title>
    <desc>Created with Sketch.</desc>
    <defs></defs>
    <g id="Assets" stroke="none" stroke-width="1" fill="none" fill-rule="evenodd">
        <g id="icon-history-progress" fill="#58585A">
            <path d="M9.49304677,10 L0.49644686,10 C0.2274175,10 0,9.81204137 0,9.56754478 L0,5.43245522 C0,5.19750693 0.217324763,5 0.49644686,5 C0.775568957,5 0.99289372,5.18795863 0.99289372,5.43245522 L0.99289372,9.14463815 L9.00710628,9.14463815 L9.00710628,5.43245522 C9.00710628,5.19750693 9.22443104,5 9.50355314,5 C9.78267524,5 10,5.18795863 10,5.43245522 L10,9.56754478 C9.97899552,9.80249307 9.76207613,10 9.49305711,10 L9.49304677,10 Z" id="Fill-1"></path>
            <path d="M6.88019325,2.01535364 L5.29544793,0.137121126 C5.14118796,-0.0457070421 4.88420223,-0.0457070421 4.72158166,0.137121126 L3.11978961,2.01535364 C3.04282753,2.10656874 3,2.22872086 3,2.36037988 C3,2.49244501 3.04283095,2.60388004 3.11978961,2.69549717 C3.1967517,2.78671227 3.29981668,2.83747125 3.40254245,2.83747125 C3.51397146,2.83747125 3.61669722,2.78670821 3.69365588,2.69549717 L4.56732169,1.66988069 L4.56732169,6.49236959 C4.56732169,6.77672384 4.75570937,7 4.99563124,7 C5.23555312,7 5.42394079,6.77672384 5.42394079,6.49236959 L5.42394079,1.649677 L6.30634412,2.69549717 C6.46060409,2.87832534 6.71758982,2.87832534 6.88021039,2.69549717 C6.95717247,2.60428208 7,2.48212996 7,2.36037988 C7,2.22831475 6.95716905,2.10656468 6.88021039,2.01535364 L6.88019325,2.01535364 Z" id="Fill-2"></path>
        </g>
    </g>
</svg>