<?xml version="1.0" encoding="UTF-8"?>
<svg width="25px" height="24px" viewBox="0 0 25 24" version="1.1" xmlns="http://www.w3.org/2000/svg" xmlns:xlink="http://www.w3.org/1999/xlink">
    <!-- Generator: Sketch 50 (54983) - http://www.bohemiancoding.com/sketch -->
    <title>icon-activitycard-vid-add</title>
    <desc>Created with Sketch.</desc>
    <defs></defs>
    <g id="Assets" stroke="none" stroke-width="1" fill="none" fill-rule="evenodd">
        <path d="M22.4302357,0 L2.68087546,0 C1.50900352,0 0.555555556,0.953447952 0.555555556,2.12531989 L0.555555556,21.8746794 C0.555555556,23.0465513 1.50900352,23.9999992 2.68087546,23.9999992 L22.4302357,23.9999992 C23.6021076,23.9999992 24.5555556,23.0465513 24.5555556,21.8746794 L24.5555556,2.12531989 C24.5555556,0.953447952 23.6021076,0 22.4302357,0 Z M17.4447159,17.4112791 C17.4447159,17.8950231 17.0509719,18.2878311 16.567228,18.2878311 C16.4153536,18.2878311 16.26442,18.2475183 16.130356,18.1697055 L6.75907645,12.7584258 C6.48439647,12.5999874 6.32033248,12.3168738 6.32033248,11.9999778 C6.32033248,11.6830818 6.48439407,11.3999778 6.75907645,11.2415298 L16.130356,5.83024771 C16.2644176,5.75243491 16.415356,5.71212211 16.567228,5.71212211 C17.0509719,5.71212211 17.4447159,6.10493009 17.4447159,6.58867407 L17.4447159,17.4112791 Z" id="icon-activitycard-vid-add" fill="#00A9A0" transform="translate(12.555556, 12.000000) rotate(-180.000000) translate(-12.555556, -12.000000) "></path>
    </g>
</svg>