<?xml version="1.0" encoding="UTF-8"?>
<svg width="25px" height="25px" viewBox="0 0 25 25" version="1.1" xmlns="http://www.w3.org/2000/svg" xmlns:xlink="http://www.w3.org/1999/xlink">
    <!-- Generator: Sketch 50.2 (55047) - http://www.bohemiancoding.com/sketch -->
    <title>icon_activitycard_img_default</title>
    <desc>Created with Sketch.</desc>
    <defs></defs>
    <g id="icon_activitycard_img_default" stroke="none" stroke-width="1" fill="none" fill-rule="evenodd">
        <path d="M16.2475045,4.72727901 L5.07408209,4.72727901 C4.88111393,4.72727901 4.72727901,4.88111393 4.72727901,5.07273481 L4.72727901,15.3082448 C4.72727901,15.4985149 4.81094495,15.5214566 4.91350041,15.3608715 L7.33842741,11.5677668 C7.64879872,11.0819868 8.12109208,11.0995015 8.39773308,11.601504 L9.12643755,12.9307143 C9.21685024,13.0966954 9.36663642,13.0966954 9.45974713,12.9307143 L11.6809243,8.93102702 C11.9602564,8.42769792 12.4055869,8.43173975 12.6768043,8.93507576 L16.0018164,15.0910981 C16.0922291,15.2597773 16.243366,15.2624753 16.3418762,15.1005429 L16.8992,14.1721304 C17.1960778,13.6795796 17.6832119,13.6755377 17.9922567,14.1586369 L20.0865825,17.4458562 C20.1904887,17.6104866 20.2728039,17.5821488 20.2728039,17.390528 L20.2728039,7.9727119 C19.7897185,8.49224288 19.1082378,8.8012531 18.372797,8.8012531 C16.9424027,8.8012531 15.7818785,7.64072888 15.7818785,6.21033458 C15.7818785,5.67055989 15.9478596,5.15641802 16.2474493,4.72729283 L16.2475045,4.72727901 Z M20.2713737,3 C21.2267663,3 22,3.774581 22,4.72862629 L22,20.2713737 C22,21.2267663 21.225419,22 20.2713737,22 L4.72862629,22 C3.77323372,22 3,21.225419 3,20.2713737 L3,4.72862629 C3,3.77323372 3.774581,3 4.72862629,3 L20.2713737,3 Z" id="Fill-1" fill="#C9C9C9"></path>
    </g>
</svg>