<?xml version="1.0" encoding="UTF-8"?>
<svg width="25px" height="25px" viewBox="0 0 25 25" version="1.1" xmlns="http://www.w3.org/2000/svg" xmlns:xlink="http://www.w3.org/1999/xlink">
    <!-- Generator: Sketch 50.2 (55047) - http://www.bohemiancoding.com/sketch -->
    <title>icon_activitycard_vid_added</title>
    <desc>Created with Sketch.</desc>
    <defs></defs>
    <g id="icon_activitycard_vid_added" stroke="none" stroke-width="1" fill="none" fill-rule="evenodd">
        <g id="Group-7" transform="translate(3.000000, 3.000000)">
            <path d="M17.3174564,0 L1.68254621,0 C0.754814256,0 1.28561624e-06,0.754812986 1.28561624e-06,1.68254497 L1.28561624e-06,17.317455 C1.28561624e-06,18.245187 0.754814256,19 1.68254621,19 L17.3174564,19 C18.2451883,19 19.0000013,18.245187 19.0000013,17.317455 L19.0000013,1.68254497 C19.0000013,0.754812986 18.2451883,0 17.3174564,0 Z M13.3705866,13.7839297 C13.3705866,14.1668937 13.0588726,14.4778667 12.6759086,14.4778667 C12.5556747,14.4778667 12.4361856,14.4459524 12.3300516,14.3843506 L4.911122,10.1004207 C4.69366701,9.97499031 4.56378301,9.75085871 4.56378301,9.49998272 C4.56378301,9.24910672 4.69366511,9.02498273 4.911122,8.89954473 L12.3300516,4.61561291 C12.4361837,4.55401111 12.5556766,4.52209681 12.6759086,4.52209681 C13.0588726,4.52209681 13.3705866,4.83306981 13.3705866,5.2160338 L13.3705866,13.7839297 Z" id="Fill-1" fill="#58585A" transform="translate(9.500001, 9.500000) rotate(-180.000000) translate(-9.500001, -9.500000) "></path>
            <g id="Group-4" transform="translate(8.000000, 8.000000)">
                <rect id="Rectangle-2" stroke="#00A9A0" fill="#00A9A0" x="0.5" y="0.5" width="12.0002894" height="12.0002894" rx="6.00014471"></rect>
                <path d="M5.29803585,8.81274347 C5.42130214,8.94382304 5.57978737,9 5.7382726,9 C5.89675783,9 6.03763359,8.94382304 6.16089988,8.81274347 L9.80606019,5.12378977 C10.0525928,4.88035628 10.0702022,4.46839191 9.82366966,4.20623276 C9.59474655,3.94407362 9.20733821,3.92534796 8.96080562,4.18750711 L5.7382726,7.42704513 L4.06537294,5.64810806 C3.81884036,5.38594892 3.43143202,5.38594892 3.18489944,5.64810806 C2.93836685,5.91026721 2.93836685,6.32223158 3.18489944,6.58439073 L5.29803585,8.81274347 Z" id="Fill-1" fill="#FFFFFF"></path>
            </g>
        </g>
    </g>
</svg>