<?xml version="1.0" encoding="UTF-8"?>
<svg width="24px" height="24px" viewBox="0 0 24 24" version="1.1" xmlns="http://www.w3.org/2000/svg" xmlns:xlink="http://www.w3.org/1999/xlink">
    <!-- Generator: Sketch 50.2 (55047) - http://www.bohemiancoding.com/sketch -->
    <title>icon_email</title>
    <desc>Created with Sketch.</desc>
    <defs></defs>
    <g id="icon_email" stroke="none" stroke-width="1" fill="none" fill-rule="evenodd">
        <path d="M5.6097561,6 C4.7247122,6 4,6.72032 4,7.6 L4,16.4 C4,17.27968 4.7247122,18 5.6097561,18 L18.8902439,18 C19.7752878,18 20.5,17.27968 20.5,16.4 L20.5,7.6 C20.5,6.72032 19.7752878,6 18.8902439,6 L5.6097561,6 Z M5.6097561,6.8 L18.8902439,6.8 C19.0136478,6.8 19.1268378,6.828124 19.2298018,6.875 L12.7907774,12.9626 C12.4347195,13.29932 12.0519195,13.29932 11.6966463,12.9626 L5.27009756,6.875 C5.37306561,6.828124 5.48624756,6.8 5.60965549,6.8 L5.6097561,6.8 Z M4.8111561,7.54376 L11.1370951,13.53756 C11.7604128,14.1274 12.7271921,14.12662 13.3505098,13.53756 L19.6889244,7.54376 C19.6904959,7.56251 19.6952125,7.580478 19.6952125,7.60001 L19.6952125,16.40001 C19.6952125,16.85001 19.3430784,17.20001 18.8903345,17.20001 L5.60984665,17.20001 C5.15710274,17.20001 4.8049686,16.85001 4.8049686,16.40001 L4.8049686,7.60001 C4.8049686,7.580478 4.80968518,7.56251 4.81125671,7.54376 L4.8111561,7.54376 Z" fill="#00A9A0"></path>
    </g>
</svg>