<?xml version="1.0" encoding="UTF-8"?>
<svg width="18px" height="18px" viewBox="0 0 18 18" version="1.1" xmlns="http://www.w3.org/2000/svg" xmlns:xlink="http://www.w3.org/1999/xlink">
    <!-- Generator: Sketch 50 (54983) - http://www.bohemiancoding.com/sketch -->
    <title>icon-history-upload</title>
    <desc>Created with Sketch.</desc>
    <defs></defs>
    <g id="Assets" stroke="none" stroke-width="1" fill="none" fill-rule="evenodd">
        <g id="icon-history-upload" fill="#00A9A0">
            <path d="M17.0874842,18 L0.893604348,18 C0.4093515,18 0,17.6616745 0,17.2215806 L0,9.77841939 C0,9.35551247 0.391184573,9 0.893604348,9 C1.39602412,9 1.7872087,9.33832553 1.7872087,9.77841939 L1.7872087,16.4603487 L16.2127913,16.4603487 L16.2127913,9.77841939 C16.2127913,9.35551247 16.6039759,9 17.1063957,9 C17.6088154,9 18,9.33832553 18,9.77841939 L18,17.2215806 C17.9621919,17.6444875 17.571737,18 17.0875028,18 L17.0874842,18 Z" id="Fill-1"></path>
            <path d="M12.3843479,3.62763656 L9.53180627,0.246818028 C9.25413833,-0.0822726759 8.79156402,-0.0822726759 8.49884699,0.246818028 L5.61562131,3.62763656 C5.47708955,3.79182373 5.4,4.01169755 5.4,4.24868379 C5.4,4.48640102 5.47709572,4.68698407 5.61562131,4.85189491 C5.75415306,5.01608208 5.93967003,5.10744824 6.1245764,5.10744824 C6.32514862,5.10744824 6.51005499,5.01607477 6.64858058,4.85189491 L8.22117905,3.00578525 L8.22117905,11.6862653 C8.22117905,12.1981029 8.56027686,12.6 8.99213624,12.6 C9.42399561,12.6 9.76309342,12.1981029 9.76309342,11.6862653 L9.76309342,2.9694186 L11.3514194,4.85189491 C11.6290874,5.18098562 12.0916617,5.18098562 12.3843787,4.85189491 C12.5229104,4.68770774 12.6,4.46783393 12.6,4.24868379 C12.6,4.01096656 12.5229043,3.79181642 12.3843787,3.62763656 L12.3843479,3.62763656 Z" id="Fill-2"></path>
        </g>
    </g>
</svg>